# xmcd
#
# Track frame offsets:
#	150
#	21768
#	38434
#	54903
#	71795
#	86318
#	100254
#	116440
#	134000
#	146994
#	162372
#	176962
#	195271
#	217557
#	235688
#	250285
#
# Disc length: 3601 seconds
#
# Revision: 0
# Processed by: cddbd v1.5.2PL0 Copyright (c) Steve Scherf et al.
# Submitted via: EasyCDDAExtractor 16.0.6.1
#
DISCID=d50e0f10
DTITLE=Καρράς Βασίλης - Αυτοπεποίθηση
DYEAR=1999
DGENRE=Κλασικά Λαϊκά
TTITLE0=Αυτοπεποίθηση
TTITLE1=Αφού Με Σκοτώνεις
TTITLE2=Σε Κατηγορώ
TTITLE3=Τι Πας Να Κάνεις
TTITLE4=Ώρες Μοναξιάς
TTITLE5=Άλλαξα Για Σένα
TTITLE6=Να Την Ξεχάσεις
TTITLE7=Φυγάς
TTITLE8=Κύριος Ήμουνα
TTITLE9=Η Επόμενη Μέρα
TTITLE10=Ερωτευμένος Με Τη Νύχτα
TTITLE11=Συγκάτοικος Της Μοναξιάς
TTITLE12=Μα Δεν Θα Έρθεις
TTITLE13=Με Λες Αλήτη
TTITLE14=Την Άλλη Φορά
TTITLE15=Άφησε Με
EXTD=©Diskadiko http://www.diskadiko.net/forums YEAR: 1999\n
EXTT0=
EXTT1=
EXTT2=
EXTT3=
EXTT4=
EXTT5=
EXTT6=
EXTT7=
EXTT8=
EXTT9=
EXTT10=
EXTT11=
EXTT12=
EXTT13=
EXTT14=
EXTT15=
PLAYORDER=
